<svg width="24" height="24" viewBox="0 0 24 24" fill="none" xmlns="http://www.w3.org/2000/svg">
<path d="M3 2.5C2.72386 2.5 2.5 2.72386 2.5 3C2.5 3.27614 2.72386 3.5 3 3.5V2.5ZM5 3L5.49853 2.96165C5.47849 2.70115 5.26127 2.5 5 2.5V3ZM21 6L21.4851 6.12127C21.5224 5.9719 21.4889 5.81365 21.3941 5.69229C21.2993 5.57094 21.154 5.5 21 5.5V6ZM5.23077 6L4.73224 6.03835L5.23077 6ZM17.6862 14.2021L17.6102 13.7079L17.6862 14.2021ZM3 3.5H5V2.5H3V3.5ZM8.20876 16.1661L17.7622 14.6963L17.6102 13.7079L8.0567 15.1777L8.20876 16.1661ZM19.8075 12.8317L21.4851 6.12127L20.5149 5.87873L18.8373 12.5892L19.8075 12.8317ZM4.50147 3.03835L4.73224 6.03835L5.7293 5.96165L5.49853 2.96165L4.50147 3.03835ZM4.73224 6.03835L5.33598 13.8869L6.33303 13.8102L5.7293 5.96165L4.73224 6.03835ZM21 5.5H5.23077V6.5H21V5.5ZM17.7622 14.6963C18.7572 14.5432 19.5633 13.8083 19.8075 12.8317L18.8373 12.5892C18.6908 13.1751 18.2072 13.6161 17.6102 13.7079L17.7622 14.6963ZM8.0567 15.1777C7.19362 15.3105 6.4 14.6809 6.33303 13.8102L5.33598 13.8869C5.4476 15.338 6.77029 16.3874 8.20876 16.1661L8.0567 15.1777Z" fill="#ABABAB"/>
<rect x="8.5" y="20.5" width="0.01" height="0.01" stroke="#ABABAB" stroke-width="1.5" stroke-linejoin="round"/>
<rect x="17.5" y="20.5" width="0.01" height="0.01" stroke="#ABABAB" stroke-width="1.5" stroke-linejoin="round"/>
</svg>
